<svg width="52" height="83" xmlns="http://www.w3.org/2000/svg">
 <!-- Created with Method Draw - http://github.com/duopixel/Method-Draw/ -->

 <g>
  <title>background</title>
  <rect fill="none" id="canvas_background" height="85" width="54" y="-1" x="-1"/>
  <g display="none" overflow="visible" y="0" x="0" height="100%" width="100%" id="canvasGrid">
   <rect fill="url(#gridpattern)" stroke-width="0" y="0" x="0" height="100%" width="100%"/>
  </g>
 </g>
 <g>
  <title>Layer 1</title>
  <path stroke="#000" id="svg_5" d="m17.977727,79.775487c-9.921382,-4.190423 -17.032701,-17.505409 -15.416584,-28.865502c1.019075,-7.163402 22.518985,-50.650244 24.396608,-49.345883c0.612831,0.425724 6.066262,10.564332 12.118736,22.530244c9.695426,19.168128 11.004491,22.742392 11.004491,30.046602c0,14.805333 -10.541522,26.932581 -23.198804,26.68853c-3.693573,-0.071227 -7.700577,-0.545521 -8.904447,-1.053987l0,-0.000003zm9.940104,-7.446538c0.328402,-1.916765 -0.438728,-2.851563 -2.340124,-2.851563c-4.333476,0 -10.344711,-6.169188 -11.687713,-11.994813c-1.432618,-6.21436 -5.231126,-6.953433 -5.792186,-1.126977c-1.08096,11.225496 17.998928,26.602345 19.820021,15.973353l0.000002,0z" stroke-opacity="null" stroke-width="3" fill="#00ff7f"/>
 </g>
</svg>